<svg xmlns="http://www.w3.org/2000/svg" xmlns:xlink="http://www.w3.org/1999/xlink" fill="none" version="1.1" width="16" height="16" viewBox="0 0 16 16"><defs><clipPath id="master_svg0_0_9031/0_3849/0_2708/0_741/0_383"><rect x="0" y="0" width="16" height="16" rx="0"/></clipPath></defs><g clip-path="url(#master_svg0_0_9031/0_3849/0_2708/0_741/0_383)"><g><path d="M14.747566746139526,5.41421Q14.886866746139527,5.2749299999999995,14.996266746139526,5.11114Q15.105666746139526,4.947356,15.181066746139527,4.765367Q15.256466746139527,4.583379,15.294866746139526,4.390181Q15.333366746139527,4.196983,15.333366746139527,4Q15.333366746139527,3.9017463,15.323666746139526,3.803966Q15.314066746139526,3.706185,15.294866746139526,3.609819Q15.275766746139526,3.513454,15.247166746139527,3.419431Q15.218666746139526,3.325408,15.181066746139527,3.234633Q15.143466746139527,3.143859,15.097166746139527,3.057207Q15.050866746139526,2.9705500000000002,14.996266746139526,2.88886Q14.941666746139527,2.80716,14.879366746139526,2.73121Q14.817066746139526,2.65526,14.747566746139526,2.5857900000000003Q14.678066746139526,2.51631,14.602166746139526,2.45398Q14.526166746139527,2.3916500000000003,14.444466746139526,2.33706Q14.362766746139526,2.28247,14.276166746139527,2.23616Q14.189466746139527,2.1898400000000002,14.098666746139527,2.15224Q14.007966746139527,2.11464,13.913866746139526,2.08612Q13.819866746139526,2.0576,13.723466746139527,2.03843Q13.627166746139526,2.01926,13.529366746139527,2.00963Q13.431566746139527,2,13.333366746139527,2Q13.136366746139526,2,12.943166746139527,2.03843Q12.749966746139526,2.07686,12.567966746139527,2.15224Q12.385976746139526,2.22762,12.222196746139526,2.33706Q12.058406746139527,2.4465,11.919116746139526,2.5857900000000003L11.918366746139526,2.5865400000000003L5.9999967461395265,8.504909999999999L4.080876746139526,6.585789999999999Q3.9415967461395263,6.4465,3.777806746139526,6.33706Q3.6140217461395263,6.22762,3.4320337461395263,6.15224Q3.250044746139526,6.07686,3.0568477461395265,6.03843Q2.8636497461395263,6,2.6666667461395264,6Q2.5684130461395265,6,2.4706327461395263,6.00963Q2.3728517461395264,6.01926,2.2764857461395263,6.03843Q2.1801207461395262,6.0576,2.0860977461395263,6.08612Q1.9920747461395263,6.11464,1.9012997461395265,6.15224Q1.8105257461395263,6.18984,1.7238737461395264,6.23616Q1.6372167461395264,6.28247,1.5555267461395264,6.33706Q1.4738267461395265,6.39165,1.3978767461395263,6.45398Q1.3219267461395263,6.51631,1.2524567461395264,6.585789999999999Q1.1829767461395264,6.65526,1.1206467461395264,6.73121Q1.0583167461395264,6.80716,1.0037267461395263,6.88886Q0.9491367461395264,6.970549999999999,0.9028267461395263,7.0572099999999995Q0.8565067461395264,7.14386,0.8189067461395263,7.23463Q0.7813067461395264,7.32541,0.7527867461395263,7.41943Q0.7242667461395265,7.513450000000001,0.7050967461395263,7.60982Q0.6859267461395264,7.70618,0.6762967461395264,7.80397Q0.6666667461395264,7.90175,0.6666667461395264,8Q0.6666667461395264,8.19698,0.7050967461395263,8.39018Q0.7435267461395263,8.58338,0.8189067461395263,8.76537Q0.8942867461395263,8.94736,1.0037267461395263,9.111139999999999Q1.1131667461395263,9.27492,1.2524567461395264,9.41421L1.2532067461395264,9.41496L4.585786746139526,12.74755Q4.725076746139527,12.88683,4.888856746139526,12.99627Q5.052646746139526,13.10571,5.234636746139526,13.18109Q5.4166167461395265,13.25647,5.6098167461395265,13.2949Q5.803016746139527,13.33333,5.9999967461395265,13.33333Q6.196986746139526,13.33333,6.3901767461395265,13.2949Q6.5833767461395265,13.25647,6.765366746139526,13.18109Q6.947356746139526,13.10571,7.111136746139526,12.99627Q7.274926746139526,12.88683,7.414216746139527,12.74755L14.746166746139526,5.4155999999999995L14.747566746139526,5.41421L14.747566746139526,5.41421Z" fill-rule="evenodd" fill="#1E1E1E" fill-opacity="1"/></g></g></svg>